# xmcd
#
# Track frame offsets: 
#        150
#        15330
#        29334
#        46281
#        60535
#        80465
#        97222
#        111283
#        126253
#        142073
#        155062
#        167918
#        179934
#        198394
#        213864
#        227368
#        242230
#        256107
#        270333
#        285873
#        305950
#        318755
#        334751
#
# Disc length: 4616 seconds
#
# Revision: 0
# Processed by: cddbd v1.5.2PL0 Copyright (c) Steve Scherf et al.
# Submitted via: ExactAudioCopyFreeDBPlugin 1.0
#
DISCID=4a120617
DTITLE=Various Artist - Beaut Ute Anthems 2015
DYEAR=2015
DGENRE=Country
TTITLE0=Cold Chisel – Shipping Steel 
TTITLE1=Adam Brand – Most People I Know Think That I’m Crazy 
TTITLE2=Keith Urban – Days Go By
TTITLE3=Jasmine Rae – One Guy One Girl
TTITLE4=Brad Paisley – Camouflauge
TTITLE5=Catherine Britt – Swingin’ Door
TTITLE6=Jake Owen – Eight Second Ride
TTITLE7=Suzi Quatro – Rock Hard 
TTITLE8=America – Ventura Highwa
TTITLE9=Jody Direen – Loud
TTITLE10=Travis Collins – Thank God I’m A Country Boy
TTITLE11=Kacey Musgraves – My House
TTITLE12=Dean Brody – Upside Down
TTITLE13=Rodney Atkins – Take A Back Road
TTITLE14=Carrie Underwood – Get Out Of This Town
TTITLE15=Morgan Evans – Made For Loving You
TTITLE16=Jared Porter – Try It On
TTITLE17=Courtney Conway – Dance
TTITLE18=Mickey Pye – When She’s Drinkin’
TTITLE19=George Thorogood and The Destroyers – You Talk Too Much
TTITLE20=Canned Heat – Going Up The Country
TTITLE21=Joe Diffie – Pickup Man
TTITLE22=Willie Nelson – On The Road Again
EXTD=
EXTT0=
EXTT1=
EXTT2=
EXTT3=
EXTT4=
EXTT5=
EXTT6=
EXTT7=
EXTT8=
EXTT9=
EXTT10=
EXTT11=
EXTT12=
EXTT13=
EXTT14=
EXTT15=
EXTT16=
EXTT17=
EXTT18=
EXTT19=
EXTT20=
EXTT21=
EXTT22=
PLAYORDER=
